Directed by
Mohinder Pratap Singh	 	
 
Cast 
	Tejaswini Kolhapure	
	

	Nawazuddin Siddiqui	
	
CREDITS TO CITYOFGODS69 bro for sharing this wonderful SHORTY with us, now yu can also enjoii this,,,,,,I converted it to xvid/mp3 :) from mp4 !

Plot-
Nawazuddin Siddiqui and Tejaswini Kolhapure have performed in this engrossing short film starring. It explores the perspectives of different social classes and how they chose to cope with it

Produced by
Richa Singh	.... 	
 
Original Music by
Sudeep Banerjee

Cinematography Daud Ali
	 	
 Specs-
Salt 'N' Pepper - Short Film.avi
Format                                   : AVI
Format/Info                              : Audio Video Interleave
File size                                : 109 MiB
Duration                                 : 14mn 40s
Overall bit rate                         : 1 037 Kbps

Video
ID                                       : 0
Format                                   : MPEG-4 Visual
Format profile                           : Simple@L3
Format settings, BVOP                    : No
Format settings, QPel                    : No
Format settings, GMC                     : No warppoints
Format settings, Matrix                  : Default (H.263)
Codec ID                                 : XVID
Codec ID/Hint                            : XviD
Duration                                 : 14mn 40s
Bit rate                                 : 892 Kbps
Width                                    : 640 pixels
Height                                   : 480 pixels
Display aspect ratio                     : 4:3
Frame rate                               : 25.000 fps
Color space                              : YUV
Chroma subsampling                       : 4:2:0
Bit depth                                : 8 bits
Scan type                                : Progressive
Compression mode                         : Lossy
Bits/(Pixel*Frame)                       : 0.116
Stream size                              : 93.7 MiB (86%)
Writing library                          : XviD 1.2.1 (UTC 2008-12-04)

Audio
ID                                       : 1
Format                                   : MPEG Audio
Format version                           : Version 1
Format profile                           : Layer 3
Mode                                     : Joint stereo
Mode extension                           : MS Stereo
Codec ID                                 : 55
Codec ID/Hint                            : MP3
Duration                                 : 14mn 40s
Bit rate mode                            : Constant
Bit rate                                 : 128 Kbps
Channel(s)                               : 2 channels
Sampling rate                            : 44.1 KHz
Compression mode                         : Lossy
Stream size                              : 13.4 MiB (12%)
Alignment                                : Aligned on interleaves
Interleave, duration                     : 26 ms (0.65 video frame)
Writing library                          : LAME3.98.2

ENJOII and as always apprec any valuable comments 
Cheers :)
 
http://imageshack.us/a/img9/4592/vlcsnap2013041213h21m14.png 
http://imageshack.us/a/img811/9931/vlcsnap2013041213h22m45.png 
http://imageshack.us/a/img407/5723/vlcsnap2013041213h23m11.png 
http://imageshack.us/a/img853/9703/vlcsnap2013041213h23m26.png 
http://imageshack.us/a/img716/5607/vlcsnap2013041213h23m32.png 
http://imageshack.us/a/img109/980/vlcsnap2013041213h23m39.png 
http://imageshack.us/a/img145/6907/vlcsnap2013041213h24m34.png 
http://imageshack.us/a/img832/8026/vlcsnap2013041213h24m20.png 
http://imageshack.us/a/img849/1228/vlcsnap2013041213h24m18.png 
http://imageshack.us/a/img69/9346/vlcsnap2013041213h24m13.png 
http://imageshack.us/a/img607/4404/vlcsnap2013041213h24m01.png 
http://imageshack.us/a/img199/9880/vlcsnap2013041213h23m56.png 
http://imageshack.us/a/img694/5283/vlcsnap2013041213h23m52.png

:)